<mxfile host="app.diagrams.net" agent="Mozilla/5.0 (Windows NT 10.0; Win64; x64; rv:138.0) Gecko/20100101 Firefox/138.0" version="27.0.9">
  <diagram id="C5RBs43oDa-KdzZeNtuy" name="Page-1">
    <mxGraphModel dx="1426" dy="813" grid="1" gridSize="10" guides="1" tooltips="1" connect="1" arrows="1" fold="1" page="1" pageScale="1" pageWidth="2336" pageHeight="1654" background="none" math="0" shadow="0">
      <root>
        <mxCell id="WIyWlLk6GJQsqaUBKTNV-0" />
        <mxCell id="WIyWlLk6GJQsqaUBKTNV-1" parent="WIyWlLk6GJQsqaUBKTNV-0" />
        <mxCell id="YafSSv5_t9T66IMQjUq8-0" value="Municipe" style="rounded=0;whiteSpace=wrap;html=1;" parent="WIyWlLk6GJQsqaUBKTNV-1" vertex="1">
          <mxGeometry x="1479" y="298" width="120" height="60" as="geometry" />
        </mxCell>
        <mxCell id="_V0TVH-yR0LAj-EPQ_b4-44" style="edgeStyle=orthogonalEdgeStyle;rounded=0;orthogonalLoop=1;jettySize=auto;html=1;entryX=0.5;entryY=1;entryDx=0;entryDy=0;shape=link;" parent="WIyWlLk6GJQsqaUBKTNV-1" source="YafSSv5_t9T66IMQjUq8-1" target="YafSSv5_t9T66IMQjUq8-2" edge="1">
          <mxGeometry relative="1" as="geometry" />
        </mxCell>
        <mxCell id="YafSSv5_t9T66IMQjUq8-1" value="Proposta" style="rounded=0;whiteSpace=wrap;html=1;" parent="WIyWlLk6GJQsqaUBKTNV-1" vertex="1">
          <mxGeometry x="1670" y="550" width="120" height="60" as="geometry" />
        </mxCell>
        <mxCell id="_V0TVH-yR0LAj-EPQ_b4-13" style="edgeStyle=orthogonalEdgeStyle;rounded=0;orthogonalLoop=1;jettySize=auto;html=1;entryX=0.75;entryY=1;entryDx=0;entryDy=0;endArrow=none;startFill=0;" parent="WIyWlLk6GJQsqaUBKTNV-1" source="YafSSv5_t9T66IMQjUq8-2" target="YafSSv5_t9T66IMQjUq8-0" edge="1">
          <mxGeometry relative="1" as="geometry" />
        </mxCell>
        <mxCell id="YafSSv5_t9T66IMQjUq8-2" value="Propoe" style="rhombus;whiteSpace=wrap;html=1;" parent="WIyWlLk6GJQsqaUBKTNV-1" vertex="1">
          <mxGeometry x="1549" y="444" width="80" height="80" as="geometry" />
        </mxCell>
        <mxCell id="YafSSv5_t9T66IMQjUq8-6" value="N" style="text;html=1;align=center;verticalAlign=middle;whiteSpace=wrap;rounded=0;" parent="WIyWlLk6GJQsqaUBKTNV-1" vertex="1">
          <mxGeometry x="1629" y="550" width="60" height="30" as="geometry" />
        </mxCell>
        <mxCell id="YafSSv5_t9T66IMQjUq8-19" style="edgeStyle=orthogonalEdgeStyle;rounded=0;orthogonalLoop=1;jettySize=auto;html=1;exitX=0.5;exitY=1;exitDx=0;exitDy=0;endArrow=none;startFill=0;" parent="WIyWlLk6GJQsqaUBKTNV-1" source="YafSSv5_t9T66IMQjUq8-8" target="YafSSv5_t9T66IMQjUq8-1" edge="1">
          <mxGeometry relative="1" as="geometry" />
        </mxCell>
        <mxCell id="YafSSv5_t9T66IMQjUq8-8" value="Parece" style="rhombus;whiteSpace=wrap;html=1;" parent="WIyWlLk6GJQsqaUBKTNV-1" vertex="1">
          <mxGeometry x="1689" y="440" width="80" height="80" as="geometry" />
        </mxCell>
        <mxCell id="YafSSv5_t9T66IMQjUq8-18" style="edgeStyle=orthogonalEdgeStyle;rounded=0;orthogonalLoop=1;jettySize=auto;html=1;exitX=0.5;exitY=1;exitDx=0;exitDy=0;entryX=0.5;entryY=0;entryDx=0;entryDy=0;endArrow=none;startFill=0;" parent="WIyWlLk6GJQsqaUBKTNV-1" source="YafSSv5_t9T66IMQjUq8-9" target="YafSSv5_t9T66IMQjUq8-8" edge="1">
          <mxGeometry relative="1" as="geometry" />
        </mxCell>
        <mxCell id="YafSSv5_t9T66IMQjUq8-9" value="Entidade" style="rounded=0;whiteSpace=wrap;html=1;" parent="WIyWlLk6GJQsqaUBKTNV-1" vertex="1">
          <mxGeometry x="1669" y="298" width="120" height="60" as="geometry" />
        </mxCell>
        <mxCell id="YafSSv5_t9T66IMQjUq8-12" value="N" style="text;html=1;align=center;verticalAlign=middle;whiteSpace=wrap;rounded=0;" parent="WIyWlLk6GJQsqaUBKTNV-1" vertex="1">
          <mxGeometry x="1685" y="400" width="60" height="30" as="geometry" />
        </mxCell>
        <mxCell id="YafSSv5_t9T66IMQjUq8-23" value="M" style="text;html=1;align=center;verticalAlign=middle;whiteSpace=wrap;rounded=0;" parent="WIyWlLk6GJQsqaUBKTNV-1" vertex="1">
          <mxGeometry x="1712" y="524" width="60" height="30" as="geometry" />
        </mxCell>
        <mxCell id="YafSSv5_t9T66IMQjUq8-36" style="edgeStyle=orthogonalEdgeStyle;rounded=0;orthogonalLoop=1;jettySize=auto;html=1;exitX=0;exitY=0.5;exitDx=0;exitDy=0;entryX=1;entryY=0.5;entryDx=0;entryDy=0;endArrow=none;startFill=0;shape=link;" parent="WIyWlLk6GJQsqaUBKTNV-1" source="YafSSv5_t9T66IMQjUq8-26" target="YafSSv5_t9T66IMQjUq8-35" edge="1">
          <mxGeometry relative="1" as="geometry" />
        </mxCell>
        <mxCell id="3TvK1OQ4RGP91wg_iT0Q-0" style="edgeStyle=orthogonalEdgeStyle;rounded=0;orthogonalLoop=1;jettySize=auto;html=1;exitX=0.25;exitY=0;exitDx=0;exitDy=0;entryX=0.5;entryY=1;entryDx=0;entryDy=0;shape=link;" edge="1" parent="WIyWlLk6GJQsqaUBKTNV-1" source="YafSSv5_t9T66IMQjUq8-26" target="YafSSv5_t9T66IMQjUq8-27">
          <mxGeometry relative="1" as="geometry">
            <Array as="points">
              <mxPoint x="2442" y="450" />
              <mxPoint x="2320" y="450" />
            </Array>
          </mxGeometry>
        </mxCell>
        <mxCell id="3TvK1OQ4RGP91wg_iT0Q-14" style="edgeStyle=orthogonalEdgeStyle;rounded=0;orthogonalLoop=1;jettySize=auto;html=1;exitX=1;exitY=0.5;exitDx=0;exitDy=0;entryX=0;entryY=0.5;entryDx=0;entryDy=0;shape=link;" edge="1" parent="WIyWlLk6GJQsqaUBKTNV-1" source="YafSSv5_t9T66IMQjUq8-26" target="3TvK1OQ4RGP91wg_iT0Q-13">
          <mxGeometry relative="1" as="geometry" />
        </mxCell>
        <mxCell id="YafSSv5_t9T66IMQjUq8-26" value="Orcamento" style="whiteSpace=wrap;html=1;" parent="WIyWlLk6GJQsqaUBKTNV-1" vertex="1">
          <mxGeometry x="2412" y="550" width="120" height="60" as="geometry" />
        </mxCell>
        <mxCell id="YafSSv5_t9T66IMQjUq8-27" value="OrcamentoConstrutora" style="rhombus;whiteSpace=wrap;html=1;" parent="WIyWlLk6GJQsqaUBKTNV-1" vertex="1">
          <mxGeometry x="2240" y="330" width="160" height="80" as="geometry" />
        </mxCell>
        <mxCell id="3TvK1OQ4RGP91wg_iT0Q-2" style="edgeStyle=orthogonalEdgeStyle;rounded=0;orthogonalLoop=1;jettySize=auto;html=1;exitX=0;exitY=0.5;exitDx=0;exitDy=0;entryX=1;entryY=0.5;entryDx=0;entryDy=0;endArrow=none;startFill=0;" edge="1" parent="WIyWlLk6GJQsqaUBKTNV-1" source="YafSSv5_t9T66IMQjUq8-35" target="oKJcFKSZTmgvzOlzi9U6-3">
          <mxGeometry relative="1" as="geometry" />
        </mxCell>
        <mxCell id="YafSSv5_t9T66IMQjUq8-35" value="Envolve" style="rhombus;whiteSpace=wrap;html=1;" parent="WIyWlLk6GJQsqaUBKTNV-1" vertex="1">
          <mxGeometry x="2280" y="540" width="80" height="80" as="geometry" />
        </mxCell>
        <mxCell id="YafSSv5_t9T66IMQjUq8-43" value="1" style="text;html=1;align=center;verticalAlign=middle;whiteSpace=wrap;rounded=0;" parent="WIyWlLk6GJQsqaUBKTNV-1" vertex="1">
          <mxGeometry x="1873" y="934" width="60" height="30" as="geometry" />
        </mxCell>
        <mxCell id="YafSSv5_t9T66IMQjUq8-45" value="N" style="text;html=1;align=center;verticalAlign=middle;whiteSpace=wrap;rounded=0;" parent="WIyWlLk6GJQsqaUBKTNV-1" vertex="1">
          <mxGeometry x="2368" y="552" width="60" height="30" as="geometry" />
        </mxCell>
        <mxCell id="x0ewcK_yAptQBKAOsCnC-6" style="edgeStyle=orthogonalEdgeStyle;rounded=0;orthogonalLoop=1;jettySize=auto;html=1;entryX=0;entryY=0.5;entryDx=0;entryDy=0;endArrow=none;startFill=0;" parent="WIyWlLk6GJQsqaUBKTNV-1" source="YafSSv5_t9T66IMQjUq8-46" target="x0ewcK_yAptQBKAOsCnC-5" edge="1">
          <mxGeometry relative="1" as="geometry" />
        </mxCell>
        <mxCell id="_V0TVH-yR0LAj-EPQ_b4-27" style="edgeStyle=orthogonalEdgeStyle;rounded=0;orthogonalLoop=1;jettySize=auto;html=1;exitX=0.5;exitY=1;exitDx=0;exitDy=0;entryX=0.5;entryY=0;entryDx=0;entryDy=0;endArrow=none;startFill=0;" parent="WIyWlLk6GJQsqaUBKTNV-1" source="YafSSv5_t9T66IMQjUq8-46" target="YafSSv5_t9T66IMQjUq8-27" edge="1">
          <mxGeometry relative="1" as="geometry" />
        </mxCell>
        <mxCell id="YafSSv5_t9T66IMQjUq8-46" value="Construtora" style="rounded=0;whiteSpace=wrap;html=1;" parent="WIyWlLk6GJQsqaUBKTNV-1" vertex="1">
          <mxGeometry x="2260" y="200" width="120" height="60" as="geometry" />
        </mxCell>
        <mxCell id="YafSSv5_t9T66IMQjUq8-64" value="Materiais" style="rounded=0;whiteSpace=wrap;html=1;" parent="WIyWlLk6GJQsqaUBKTNV-1" vertex="1">
          <mxGeometry x="2620" y="893" width="130" height="60" as="geometry" />
        </mxCell>
        <mxCell id="YafSSv5_t9T66IMQjUq8-65" value="Equipamentos" style="rounded=0;whiteSpace=wrap;html=1;" parent="WIyWlLk6GJQsqaUBKTNV-1" vertex="1">
          <mxGeometry x="2794" y="893" width="120" height="60" as="geometry" />
        </mxCell>
        <mxCell id="3TvK1OQ4RGP91wg_iT0Q-8" style="edgeStyle=orthogonalEdgeStyle;rounded=0;orthogonalLoop=1;jettySize=auto;html=1;exitX=0.5;exitY=1;exitDx=0;exitDy=0;entryX=0.5;entryY=0;entryDx=0;entryDy=0;endArrow=none;startFill=0;" edge="1" parent="WIyWlLk6GJQsqaUBKTNV-1" source="YafSSv5_t9T66IMQjUq8-67" target="YafSSv5_t9T66IMQjUq8-64">
          <mxGeometry relative="1" as="geometry" />
        </mxCell>
        <mxCell id="YafSSv5_t9T66IMQjUq8-67" value="PrecisaMateriais" style="rhombus;whiteSpace=wrap;html=1;" parent="WIyWlLk6GJQsqaUBKTNV-1" vertex="1">
          <mxGeometry x="2625" y="710" width="120" height="80" as="geometry" />
        </mxCell>
        <mxCell id="YafSSv5_t9T66IMQjUq8-72" value="N" style="text;html=1;align=center;verticalAlign=middle;whiteSpace=wrap;rounded=0;" parent="WIyWlLk6GJQsqaUBKTNV-1" vertex="1">
          <mxGeometry x="2665" y="554" width="60" height="30" as="geometry" />
        </mxCell>
        <mxCell id="YafSSv5_t9T66IMQjUq8-74" value="N" style="text;html=1;align=center;verticalAlign=middle;whiteSpace=wrap;rounded=0;" parent="WIyWlLk6GJQsqaUBKTNV-1" vertex="1">
          <mxGeometry x="2640" y="863" width="60" height="30" as="geometry" />
        </mxCell>
        <mxCell id="YafSSv5_t9T66IMQjUq8-76" value="N" style="text;html=1;align=center;verticalAlign=middle;whiteSpace=wrap;rounded=0;" parent="WIyWlLk6GJQsqaUBKTNV-1" vertex="1">
          <mxGeometry x="2840" y="857" width="60" height="30" as="geometry" />
        </mxCell>
        <mxCell id="_V0TVH-yR0LAj-EPQ_b4-43" style="edgeStyle=orthogonalEdgeStyle;rounded=0;orthogonalLoop=1;jettySize=auto;html=1;entryX=0.5;entryY=1;entryDx=0;entryDy=0;endArrow=none;startFill=0;" parent="WIyWlLk6GJQsqaUBKTNV-1" source="oKJcFKSZTmgvzOlzi9U6-0" target="YafSSv5_t9T66IMQjUq8-1" edge="1">
          <mxGeometry relative="1" as="geometry" />
        </mxCell>
        <mxCell id="_V0TVH-yR0LAj-EPQ_b4-46" style="edgeStyle=orthogonalEdgeStyle;rounded=0;orthogonalLoop=1;jettySize=auto;html=1;entryX=0;entryY=0.5;entryDx=0;entryDy=0;shape=link;" parent="WIyWlLk6GJQsqaUBKTNV-1" source="oKJcFKSZTmgvzOlzi9U6-0" target="oKJcFKSZTmgvzOlzi9U6-1" edge="1">
          <mxGeometry relative="1" as="geometry">
            <Array as="points">
              <mxPoint x="1730" y="810" />
            </Array>
          </mxGeometry>
        </mxCell>
        <mxCell id="_V0TVH-yR0LAj-EPQ_b4-47" style="edgeStyle=orthogonalEdgeStyle;rounded=0;orthogonalLoop=1;jettySize=auto;html=1;entryX=0;entryY=0.5;entryDx=0;entryDy=0;shape=link;" parent="WIyWlLk6GJQsqaUBKTNV-1" source="oKJcFKSZTmgvzOlzi9U6-0" target="oKJcFKSZTmgvzOlzi9U6-2" edge="1">
          <mxGeometry relative="1" as="geometry">
            <Array as="points">
              <mxPoint x="1730" y="883" />
            </Array>
          </mxGeometry>
        </mxCell>
        <mxCell id="_V0TVH-yR0LAj-EPQ_b4-48" style="edgeStyle=orthogonalEdgeStyle;rounded=0;orthogonalLoop=1;jettySize=auto;html=1;entryX=0;entryY=0.5;entryDx=0;entryDy=0;shape=link;" parent="WIyWlLk6GJQsqaUBKTNV-1" source="oKJcFKSZTmgvzOlzi9U6-0" target="oKJcFKSZTmgvzOlzi9U6-3" edge="1">
          <mxGeometry relative="1" as="geometry">
            <Array as="points">
              <mxPoint x="1730" y="960" />
            </Array>
          </mxGeometry>
        </mxCell>
        <mxCell id="_V0TVH-yR0LAj-EPQ_b4-49" style="edgeStyle=orthogonalEdgeStyle;rounded=0;orthogonalLoop=1;jettySize=auto;html=1;entryX=0;entryY=0.5;entryDx=0;entryDy=0;shape=link;" parent="WIyWlLk6GJQsqaUBKTNV-1" source="oKJcFKSZTmgvzOlzi9U6-0" target="oKJcFKSZTmgvzOlzi9U6-4" edge="1">
          <mxGeometry relative="1" as="geometry">
            <Array as="points">
              <mxPoint x="1730" y="1040" />
            </Array>
          </mxGeometry>
        </mxCell>
        <mxCell id="_V0TVH-yR0LAj-EPQ_b4-51" style="edgeStyle=orthogonalEdgeStyle;rounded=0;orthogonalLoop=1;jettySize=auto;html=1;entryX=0;entryY=0.5;entryDx=0;entryDy=0;shape=link;" parent="WIyWlLk6GJQsqaUBKTNV-1" source="oKJcFKSZTmgvzOlzi9U6-0" target="oKJcFKSZTmgvzOlzi9U6-5" edge="1">
          <mxGeometry relative="1" as="geometry">
            <Array as="points">
              <mxPoint x="1730" y="1120" />
            </Array>
          </mxGeometry>
        </mxCell>
        <mxCell id="oKJcFKSZTmgvzOlzi9U6-0" value="Fase" style="rhombus;whiteSpace=wrap;html=1;" parent="WIyWlLk6GJQsqaUBKTNV-1" vertex="1">
          <mxGeometry x="1690" y="660" width="80" height="80" as="geometry" />
        </mxCell>
        <mxCell id="oKJcFKSZTmgvzOlzi9U6-1" value="Estudo Viabilidade" style="whiteSpace=wrap;html=1;" parent="WIyWlLk6GJQsqaUBKTNV-1" vertex="1">
          <mxGeometry x="1773" y="780" width="120" height="60" as="geometry" />
        </mxCell>
        <mxCell id="oKJcFKSZTmgvzOlzi9U6-2" value="Analise dos Municipes" style="whiteSpace=wrap;html=1;" parent="WIyWlLk6GJQsqaUBKTNV-1" vertex="1">
          <mxGeometry x="1773" y="853" width="120" height="60" as="geometry" />
        </mxCell>
        <mxCell id="oKJcFKSZTmgvzOlzi9U6-3" value="Fase de Execucao" style="whiteSpace=wrap;html=1;" parent="WIyWlLk6GJQsqaUBKTNV-1" vertex="1">
          <mxGeometry x="1773" y="930" width="120" height="60" as="geometry" />
        </mxCell>
        <mxCell id="oKJcFKSZTmgvzOlzi9U6-4" value="Em Orçamento" style="whiteSpace=wrap;html=1;" parent="WIyWlLk6GJQsqaUBKTNV-1" vertex="1">
          <mxGeometry x="1773" y="1010" width="120" height="60" as="geometry" />
        </mxCell>
        <mxCell id="oKJcFKSZTmgvzOlzi9U6-5" value="Analise de Execucao" style="whiteSpace=wrap;html=1;" parent="WIyWlLk6GJQsqaUBKTNV-1" vertex="1">
          <mxGeometry x="1773" y="1090" width="120" height="60" as="geometry" />
        </mxCell>
        <mxCell id="oKJcFKSZTmgvzOlzi9U6-20" value="1" style="text;html=1;align=center;verticalAlign=middle;whiteSpace=wrap;rounded=0;" parent="WIyWlLk6GJQsqaUBKTNV-1" vertex="1">
          <mxGeometry x="1732" y="1090" width="60" height="30" as="geometry" />
        </mxCell>
        <mxCell id="oKJcFKSZTmgvzOlzi9U6-21" value="1" style="text;html=1;align=center;verticalAlign=middle;whiteSpace=wrap;rounded=0;" parent="WIyWlLk6GJQsqaUBKTNV-1" vertex="1">
          <mxGeometry x="1730" y="1010" width="60" height="30" as="geometry" />
        </mxCell>
        <mxCell id="oKJcFKSZTmgvzOlzi9U6-22" value="N" style="text;html=1;align=center;verticalAlign=middle;whiteSpace=wrap;rounded=0;" parent="WIyWlLk6GJQsqaUBKTNV-1" vertex="1">
          <mxGeometry x="1732" y="930" width="60" height="30" as="geometry" />
        </mxCell>
        <mxCell id="oKJcFKSZTmgvzOlzi9U6-23" value="1" style="text;html=1;align=center;verticalAlign=middle;whiteSpace=wrap;rounded=0;" parent="WIyWlLk6GJQsqaUBKTNV-1" vertex="1">
          <mxGeometry x="1731" y="853" width="60" height="30" as="geometry" />
        </mxCell>
        <mxCell id="oKJcFKSZTmgvzOlzi9U6-24" value="1" style="text;html=1;align=center;verticalAlign=middle;whiteSpace=wrap;rounded=0;" parent="WIyWlLk6GJQsqaUBKTNV-1" vertex="1">
          <mxGeometry x="1732" y="780" width="60" height="30" as="geometry" />
        </mxCell>
        <mxCell id="oKJcFKSZTmgvzOlzi9U6-25" value="1" style="text;html=1;align=center;verticalAlign=middle;whiteSpace=wrap;rounded=0;" parent="WIyWlLk6GJQsqaUBKTNV-1" vertex="1">
          <mxGeometry x="1689" y="607" width="60" height="30" as="geometry" />
        </mxCell>
        <mxCell id="x0ewcK_yAptQBKAOsCnC-7" style="edgeStyle=orthogonalEdgeStyle;rounded=0;orthogonalLoop=1;jettySize=auto;html=1;entryX=1;entryY=0.5;entryDx=0;entryDy=0;endArrow=none;startFill=0;shape=link;" parent="WIyWlLk6GJQsqaUBKTNV-1" source="x0ewcK_yAptQBKAOsCnC-4" target="x0ewcK_yAptQBKAOsCnC-5" edge="1">
          <mxGeometry relative="1" as="geometry" />
        </mxCell>
        <mxCell id="_V0TVH-yR0LAj-EPQ_b4-28" style="edgeStyle=orthogonalEdgeStyle;rounded=0;orthogonalLoop=1;jettySize=auto;html=1;exitX=0.5;exitY=1;exitDx=0;exitDy=0;entryX=0.5;entryY=0;entryDx=0;entryDy=0;endArrow=none;startFill=0;" parent="WIyWlLk6GJQsqaUBKTNV-1" source="x0ewcK_yAptQBKAOsCnC-4" target="_V0TVH-yR0LAj-EPQ_b4-24" edge="1">
          <mxGeometry relative="1" as="geometry" />
        </mxCell>
        <mxCell id="x0ewcK_yAptQBKAOsCnC-4" value="Consorcio" style="rounded=0;whiteSpace=wrap;html=1;" parent="WIyWlLk6GJQsqaUBKTNV-1" vertex="1">
          <mxGeometry x="2560" y="200" width="120" height="60" as="geometry" />
        </mxCell>
        <mxCell id="x0ewcK_yAptQBKAOsCnC-5" value="Participa" style="rhombus;whiteSpace=wrap;html=1;" parent="WIyWlLk6GJQsqaUBKTNV-1" vertex="1">
          <mxGeometry x="2430" y="190" width="80" height="80" as="geometry" />
        </mxCell>
        <mxCell id="x0ewcK_yAptQBKAOsCnC-8" value="N" style="text;html=1;align=center;verticalAlign=middle;whiteSpace=wrap;rounded=0;" parent="WIyWlLk6GJQsqaUBKTNV-1" vertex="1">
          <mxGeometry x="2360" y="200" width="60" height="30" as="geometry" />
        </mxCell>
        <mxCell id="x0ewcK_yAptQBKAOsCnC-9" value="M" style="text;html=1;align=center;verticalAlign=middle;whiteSpace=wrap;rounded=0;" parent="WIyWlLk6GJQsqaUBKTNV-1" vertex="1">
          <mxGeometry x="2520" y="200" width="60" height="30" as="geometry" />
        </mxCell>
        <mxCell id="_V0TVH-yR0LAj-EPQ_b4-14" style="edgeStyle=orthogonalEdgeStyle;rounded=0;orthogonalLoop=1;jettySize=auto;html=1;exitX=0.5;exitY=0;exitDx=0;exitDy=0;entryX=0.25;entryY=1;entryDx=0;entryDy=0;endArrow=none;startFill=0;" parent="WIyWlLk6GJQsqaUBKTNV-1" source="_V0TVH-yR0LAj-EPQ_b4-2" target="YafSSv5_t9T66IMQjUq8-0" edge="1">
          <mxGeometry relative="1" as="geometry" />
        </mxCell>
        <mxCell id="_V0TVH-yR0LAj-EPQ_b4-15" style="edgeStyle=orthogonalEdgeStyle;rounded=0;orthogonalLoop=1;jettySize=auto;html=1;entryX=0;entryY=0.75;entryDx=0;entryDy=0;endArrow=none;startFill=0;" parent="WIyWlLk6GJQsqaUBKTNV-1" source="_V0TVH-yR0LAj-EPQ_b4-2" target="YafSSv5_t9T66IMQjUq8-1" edge="1">
          <mxGeometry relative="1" as="geometry">
            <Array as="points">
              <mxPoint x="1480" y="595" />
            </Array>
          </mxGeometry>
        </mxCell>
        <mxCell id="_V0TVH-yR0LAj-EPQ_b4-2" value="Classifica" style="rhombus;whiteSpace=wrap;html=1;" parent="WIyWlLk6GJQsqaUBKTNV-1" vertex="1">
          <mxGeometry x="1440" y="444" width="80" height="80" as="geometry" />
        </mxCell>
        <mxCell id="_V0TVH-yR0LAj-EPQ_b4-9" value="N" style="text;html=1;align=center;verticalAlign=middle;whiteSpace=wrap;rounded=0;" parent="WIyWlLk6GJQsqaUBKTNV-1" vertex="1">
          <mxGeometry x="1470" y="353" width="60" height="30" as="geometry" />
        </mxCell>
        <mxCell id="_V0TVH-yR0LAj-EPQ_b4-10" value="N" style="text;html=1;align=center;verticalAlign=middle;whiteSpace=wrap;rounded=0;" parent="WIyWlLk6GJQsqaUBKTNV-1" vertex="1">
          <mxGeometry x="1629" y="590" width="60" height="30" as="geometry" />
        </mxCell>
        <mxCell id="YafSSv5_t9T66IMQjUq8-5" value="1" style="text;html=1;align=center;verticalAlign=middle;whiteSpace=wrap;rounded=0;" parent="WIyWlLk6GJQsqaUBKTNV-1" vertex="1">
          <mxGeometry x="1549" y="358" width="60" height="30" as="geometry" />
        </mxCell>
        <mxCell id="3TvK1OQ4RGP91wg_iT0Q-9" style="edgeStyle=orthogonalEdgeStyle;rounded=0;orthogonalLoop=1;jettySize=auto;html=1;exitX=0.5;exitY=1;exitDx=0;exitDy=0;entryX=0.5;entryY=0;entryDx=0;entryDy=0;endArrow=none;startFill=0;" edge="1" parent="WIyWlLk6GJQsqaUBKTNV-1" source="_V0TVH-yR0LAj-EPQ_b4-16" target="YafSSv5_t9T66IMQjUq8-65">
          <mxGeometry relative="1" as="geometry" />
        </mxCell>
        <mxCell id="_V0TVH-yR0LAj-EPQ_b4-16" value="PrecisaEquipamento" style="rhombus;whiteSpace=wrap;html=1;" parent="WIyWlLk6GJQsqaUBKTNV-1" vertex="1">
          <mxGeometry x="2779" y="710" width="150" height="80" as="geometry" />
        </mxCell>
        <mxCell id="_V0TVH-yR0LAj-EPQ_b4-23" value="N" style="text;html=1;align=center;verticalAlign=middle;whiteSpace=wrap;rounded=0;" parent="WIyWlLk6GJQsqaUBKTNV-1" vertex="1">
          <mxGeometry x="2779" y="614" width="60" height="30" as="geometry" />
        </mxCell>
        <mxCell id="_V0TVH-yR0LAj-EPQ_b4-26" style="edgeStyle=orthogonalEdgeStyle;rounded=0;orthogonalLoop=1;jettySize=auto;html=1;entryX=0.75;entryY=0;entryDx=0;entryDy=0;shape=link;exitX=0.5;exitY=1;exitDx=0;exitDy=0;" parent="WIyWlLk6GJQsqaUBKTNV-1" source="_V0TVH-yR0LAj-EPQ_b4-24" target="YafSSv5_t9T66IMQjUq8-26" edge="1">
          <mxGeometry relative="1" as="geometry">
            <Array as="points">
              <mxPoint x="2620" y="450" />
              <mxPoint x="2500" y="450" />
              <mxPoint x="2500" y="550" />
            </Array>
          </mxGeometry>
        </mxCell>
        <mxCell id="_V0TVH-yR0LAj-EPQ_b4-24" value="OrcamentoConsorcio" style="rhombus;whiteSpace=wrap;html=1;" parent="WIyWlLk6GJQsqaUBKTNV-1" vertex="1">
          <mxGeometry x="2540" y="330" width="160" height="80" as="geometry" />
        </mxCell>
        <mxCell id="_V0TVH-yR0LAj-EPQ_b4-30" value="N" style="text;html=1;align=center;verticalAlign=middle;whiteSpace=wrap;rounded=0;" parent="WIyWlLk6GJQsqaUBKTNV-1" vertex="1">
          <mxGeometry x="2395" y="520" width="60" height="30" as="geometry" />
        </mxCell>
        <mxCell id="_V0TVH-yR0LAj-EPQ_b4-31" value="1" style="text;html=1;align=center;verticalAlign=middle;whiteSpace=wrap;rounded=0;" parent="WIyWlLk6GJQsqaUBKTNV-1" vertex="1">
          <mxGeometry x="2302" y="260" width="60" height="30" as="geometry" />
        </mxCell>
        <mxCell id="_V0TVH-yR0LAj-EPQ_b4-32" value="N" style="text;html=1;align=center;verticalAlign=middle;whiteSpace=wrap;rounded=0;" parent="WIyWlLk6GJQsqaUBKTNV-1" vertex="1">
          <mxGeometry x="2488" y="520" width="60" height="30" as="geometry" />
        </mxCell>
        <mxCell id="_V0TVH-yR0LAj-EPQ_b4-34" value="1" style="text;html=1;align=center;verticalAlign=middle;whiteSpace=wrap;rounded=0;" parent="WIyWlLk6GJQsqaUBKTNV-1" vertex="1">
          <mxGeometry x="2605" y="258" width="60" height="30" as="geometry" />
        </mxCell>
        <mxCell id="3TvK1OQ4RGP91wg_iT0Q-4" style="edgeStyle=orthogonalEdgeStyle;rounded=0;orthogonalLoop=1;jettySize=auto;html=1;exitX=0.25;exitY=1;exitDx=0;exitDy=0;entryX=0.5;entryY=0;entryDx=0;entryDy=0;endArrow=none;startFill=0;" edge="1" parent="WIyWlLk6GJQsqaUBKTNV-1" source="3TvK1OQ4RGP91wg_iT0Q-3" target="YafSSv5_t9T66IMQjUq8-67">
          <mxGeometry relative="1" as="geometry" />
        </mxCell>
        <mxCell id="3TvK1OQ4RGP91wg_iT0Q-5" style="edgeStyle=orthogonalEdgeStyle;rounded=0;orthogonalLoop=1;jettySize=auto;html=1;exitX=0.75;exitY=1;exitDx=0;exitDy=0;entryX=0.5;entryY=0;entryDx=0;entryDy=0;endArrow=none;startFill=0;" edge="1" parent="WIyWlLk6GJQsqaUBKTNV-1" source="3TvK1OQ4RGP91wg_iT0Q-3" target="_V0TVH-yR0LAj-EPQ_b4-16">
          <mxGeometry relative="1" as="geometry" />
        </mxCell>
        <mxCell id="3TvK1OQ4RGP91wg_iT0Q-3" value="OrdensDeTrabalho" style="whiteSpace=wrap;html=1;" vertex="1" parent="WIyWlLk6GJQsqaUBKTNV-1">
          <mxGeometry x="2710" y="550" width="120" height="60" as="geometry" />
        </mxCell>
        <mxCell id="3TvK1OQ4RGP91wg_iT0Q-12" value="N" style="text;html=1;align=center;verticalAlign=middle;whiteSpace=wrap;rounded=0;" vertex="1" parent="WIyWlLk6GJQsqaUBKTNV-1">
          <mxGeometry x="2700" y="611" width="60" height="30" as="geometry" />
        </mxCell>
        <mxCell id="3TvK1OQ4RGP91wg_iT0Q-15" style="edgeStyle=orthogonalEdgeStyle;rounded=0;orthogonalLoop=1;jettySize=auto;html=1;exitX=1;exitY=0.5;exitDx=0;exitDy=0;entryX=0;entryY=0.5;entryDx=0;entryDy=0;endArrow=none;startFill=0;" edge="1" parent="WIyWlLk6GJQsqaUBKTNV-1" source="3TvK1OQ4RGP91wg_iT0Q-13" target="3TvK1OQ4RGP91wg_iT0Q-3">
          <mxGeometry relative="1" as="geometry" />
        </mxCell>
        <mxCell id="3TvK1OQ4RGP91wg_iT0Q-13" value="Envolve" style="rhombus;whiteSpace=wrap;html=1;" vertex="1" parent="WIyWlLk6GJQsqaUBKTNV-1">
          <mxGeometry x="2585" y="540" width="80" height="80" as="geometry" />
        </mxCell>
        <mxCell id="3TvK1OQ4RGP91wg_iT0Q-16" value="1" style="text;html=1;align=center;verticalAlign=middle;whiteSpace=wrap;rounded=0;" vertex="1" parent="WIyWlLk6GJQsqaUBKTNV-1">
          <mxGeometry x="2510" y="550" width="60" height="30" as="geometry" />
        </mxCell>
      </root>
    </mxGraphModel>
  </diagram>
</mxfile>
